<?xml version="1.0" encoding="UTF-8"?>
<svg id="Layer_1" xmlns="http://www.w3.org/2000/svg" version="1.1" viewBox="0 0 32 32">
  <!-- Generator: Adobe Illustrator 30.1.0, SVG Export Plug-In . SVG Version: 2.1.1 Build 136)  -->
  <defs>
    <style>
      .st0 {
        fill: #004fff;
      }
    </style>
  </defs>
  <path class="st0" d="M29.7,20.2c-2,1-4.1,1.6-6.4,2-.9.1-1.6.1-2.5.2-2.6.1-5.1,0-7.5-.4-4.4-.9-9.2-3.1-11.9-6.8,0,.3,0,.6,0,.8,0,3.4,1.2,6.6,3.2,9.1,2,1.1,4.7,1.6,6.9,1.8.2,0,3,0,4.1-.2,1.1-.1,2.2-.3,3.3-.6,2.5-.6,5-1.7,7.2-3,1-.6,2.1-1.3,3-2.1,0,0,0,.1-.1.2-.9,1.1-2.2,2.2-3.3,3-3.7,2.5-8.8,4.4-13.3,4.4-.3,0-3.4-.1-4.3-.3,2.3,1.5,5.1,2.4,8,2.4,6.8,0,12.5-4.6,14.2-10.8l-.5.3Z"/>
  <path class="st0" d="M11.5,9.7c4.3,5.2,11.3,8.4,17.8,8.4s0,0,0,0h1.2c0-.8.1-1.4.1-2.1,0-8.1-6.6-14.7-14.7-14.7s-5.4.8-7.6,2.1,0,0,0,0c.3,2.2,1.3,4.2,3.1,6.3Z"/>
  <path class="st0" d="M6.3,16.9c4.5,3.4,10.6,4.6,16.2,4.4.3,0,1.7,0,2.2-.2,1.2-.2,2.3-.4,3.5-.7.7-.2,1.4-.4,2.1-.6.1-.5.2-1,.3-1.5-.2,0-.4.1-.6.1-.6.1-1.1.2-1.6.2-3.8.4-7.9-.5-11.5-2.1-4.4-2-9.5-6-10.3-11.1v-.5c-2.1,1.8-3.7,4.1-4.6,6.8.8,1.9,2.3,3.8,4.3,5.3Z"/>
</svg>