<?xml version="1.0" encoding="UTF-8"?>
<svg id="Layer_1" xmlns="http://www.w3.org/2000/svg" version="1.1" viewBox="0 0 32 32">
  <!-- Generator: Adobe Illustrator 30.1.0, SVG Export Plug-In . SVG Version: 2.1.1 Build 136)  -->
  <defs>
    <style>
      .st0 {
        fill: #004fff;
      }
    </style>
  </defs>
  <path class="st0" d="M29.8,20.3c-2.1,1-4.2,1.7-6.5,2-.9.1-1.7.1-2.5.2-2.6.2-5.1,0-7.6-.4-4.5-.9-9.3-3.2-12-7,0,.3,0,.6,0,.9,0,3.6,1.2,6.8,3.2,9.4,2,1.1,4.7,1.7,7,1.8.2,0,3,0,4.2-.2,1.2-.1,2.2-.4,3.4-.6,2.5-.6,5.1-1.7,7.3-3.1,1.1-.7,2.1-1.4,3-2.2,0,0,0,.1-.1.2-.9,1.1-2.2,2.3-3.4,3.1-3.7,2.6-8.9,4.5-13.5,4.6-.3,0-3.5-.1-4.3-.3,2.3,1.6,5.1,2.5,8.1,2.5,6.8,0,12.6-4.7,14.3-11.1l-.6.3Z"/>
  <path class="st0" d="M11.4,9.5c4.4,5.3,11.4,8.6,18.1,8.7,0,0,0,0,0,0h1.2c0-.8.1-1.5.1-2.2C30.9,7.6,24.2.8,16,.8s-5.4.8-7.7,2.2,0,0,0,0c.3,2.3,1.3,4.3,3.1,6.5Z"/>
  <path class="st0" d="M6.1,16.8c4.6,3.5,10.8,4.7,16.4,4.5.3,0,1.8,0,2.2-.2,1.2-.2,2.4-.4,3.5-.7.8-.2,1.4-.4,2.1-.7.1-.5.2-1,.3-1.5-.2,0-.4.1-.6.1-.6.1-1.1.2-1.7.2-3.9.5-8-.5-11.6-2.2-4.5-2.1-9.6-6.2-10.4-11.5v-.5c-2.2,1.8-3.8,4.2-4.6,7,.8,2,2.3,3.9,4.3,5.4Z"/>
</svg>