<?xml version="1.0" encoding="UTF-8"?>
<svg id="Layer_1" xmlns="http://www.w3.org/2000/svg" version="1.1" viewBox="0 0 192 192">
  <!-- Generator: Adobe Illustrator 30.1.0, SVG Export Plug-In . SVG Version: 2.1.1 Build 136)  -->
  <defs>
    <style>
      .st0 {
        fill: #fff;
      }

      .st1 {
        fill: #09135b;
      }
    </style>
  </defs>
  <rect class="st1" x="3.1" y="2.8" width="186.4" height="186.4" rx="23.8" ry="23.8"/>
  <g>
    <path class="st0" d="M161.8,116.2c-9.8,4.7-19.9,7.8-30.7,9.5-4.2.6-7.8.6-11.9.8-12.3.7-24.3.4-36.2-2-21.2-4.3-44-14.7-57.2-32.5,0,1.3-.1,2.7-.1,4,0,16.5,5.7,31.7,15.2,43.8,9.7,5.1,22.5,7.7,33.1,8.4.8,0,14.5-.2,19.7-.7,5.5-.5,10.6-1.6,16-3,11.8-2.9,24.1-8.1,34.6-14.6,5-3.1,9.9-6.5,14.5-10.1.3,0-.3.6-.5.9-4.4,5.3-10.4,10.5-16,14.5-17.6,12.2-42.5,20.9-64,21.4-1.4,0-16.4-.5-20.5-1.2,11.1,7.2,24.3,11.5,38.6,11.5,32.5,0,59.8-21.9,68.1-51.8l-2.6,1.3Z"/>
    <path class="st0" d="M74.5,65.7c20.8,24.9,54.1,40.2,85.7,40.5,0,0,.2,0,.3,0l5.8-.5c.4-3.2.7-6.5.7-9.8,0-39-31.6-70.7-70.7-70.7s-25.8,3.7-36.5,10.1c0,0,0,0,0,0,1.5,10.6,6.1,20,14.7,30.2Z"/>
    <path class="st0" d="M49.5,99.9c21.8,16.2,51.1,21.9,77.8,21,1.6,0,8.4-.4,10.7-.8,5.6-1.1,11.2-2,16.8-3.4,3.6-.9,6.6-1.9,9.9-3.1.6-2.3,1.1-4.7,1.4-7.1-1,.2-1.9.5-2.9.7-2.7.5-5.3.8-7.9,1.1-18.5,2.2-38.1-2.4-55.1-10.1-21.2-9.6-45.7-29.1-49.4-53.5l-.4-2.5c-10,8.5-17.5,19.7-21.6,32.4,3.7,9.3,10.9,18,20.6,25.3Z"/>
  </g>
</svg>